<mxfile host="app.diagrams.net" modified="2023-07-06T11:08:51.669Z" agent="Mozilla/5.0 (X11; Ubuntu; Linux x86_64; rv:109.0) Gecko/20100101 Firefox/114.0" etag="kDwSySBp8yg1wkvtxpPz" version="21.3.7" type="device">
  <diagram name="Page-1" id="tzQITGD-KAaS58YVqhrc">
    <mxGraphModel dx="2264" dy="1126" grid="1" gridSize="10" guides="1" tooltips="1" connect="1" arrows="1" fold="1" page="1" pageScale="1" pageWidth="827" pageHeight="1169" math="0" shadow="0">
      <root>
        <mxCell id="0" />
        <mxCell id="1" parent="0" />
        <mxCell id="eHgLXqpAeeJmSoNgKmg_-1" value="Système" style="rounded=0;whiteSpace=wrap;html=1;" parent="1" vertex="1">
          <mxGeometry x="-488" y="85" width="104" height="30" as="geometry" />
        </mxCell>
        <mxCell id="eHgLXqpAeeJmSoNgKmg_-2" value=": Utilisateur" style="shape=umlActor;verticalLabelPosition=bottom;verticalAlign=top;html=1;outlineConnect=0;" parent="1" vertex="1">
          <mxGeometry x="-810" y="70" width="30" height="60" as="geometry" />
        </mxCell>
        <mxCell id="eHgLXqpAeeJmSoNgKmg_-7" value="" style="html=1;points=[];perimeter=orthogonalPerimeter;outlineConnect=0;targetShapes=umlLifeline;portConstraint=eastwest;newEdgeStyle={&quot;edgeStyle&quot;:&quot;elbowEdgeStyle&quot;,&quot;elbow&quot;:&quot;vertical&quot;,&quot;curved&quot;:0,&quot;rounded&quot;:0};" parent="1" vertex="1">
          <mxGeometry x="-800" y="180" width="10" height="260" as="geometry" />
        </mxCell>
        <mxCell id="eHgLXqpAeeJmSoNgKmg_-8" value="" style="html=1;points=[];perimeter=orthogonalPerimeter;outlineConnect=0;targetShapes=umlLifeline;portConstraint=eastwest;newEdgeStyle={&quot;edgeStyle&quot;:&quot;elbowEdgeStyle&quot;,&quot;elbow&quot;:&quot;vertical&quot;,&quot;curved&quot;:0,&quot;rounded&quot;:0};" parent="1" vertex="1">
          <mxGeometry x="-441" y="180" width="10" height="260" as="geometry" />
        </mxCell>
        <mxCell id="eHgLXqpAeeJmSoNgKmg_-21" value="" style="endArrow=classic;html=1;rounded=0;" parent="1" edge="1">
          <mxGeometry relative="1" as="geometry">
            <mxPoint x="-790" y="180" as="sourcePoint" />
            <mxPoint x="-441" y="180" as="targetPoint" />
            <Array as="points">
              <mxPoint x="-720" y="180" />
              <mxPoint x="-670" y="180" />
            </Array>
          </mxGeometry>
        </mxCell>
        <mxCell id="eHgLXqpAeeJmSoNgKmg_-22" value="1 : consultation du blog()" style="edgeLabel;resizable=0;html=1;align=center;verticalAlign=middle;" parent="eHgLXqpAeeJmSoNgKmg_-21" connectable="0" vertex="1">
          <mxGeometry relative="1" as="geometry">
            <mxPoint y="-10" as="offset" />
          </mxGeometry>
        </mxCell>
        <mxCell id="eHgLXqpAeeJmSoNgKmg_-29" value="" style="endArrow=classic;html=1;rounded=0;" parent="1" edge="1">
          <mxGeometry relative="1" as="geometry">
            <mxPoint x="-791" y="399" as="sourcePoint" />
            <mxPoint x="-442" y="399" as="targetPoint" />
            <Array as="points">
              <mxPoint x="-721" y="399" />
              <mxPoint x="-671" y="399" />
            </Array>
          </mxGeometry>
        </mxCell>
        <mxCell id="eHgLXqpAeeJmSoNgKmg_-30" value="1.5 : ajout d&#39;un commentaire()" style="edgeLabel;resizable=0;html=1;align=center;verticalAlign=middle;" parent="eHgLXqpAeeJmSoNgKmg_-29" connectable="0" vertex="1">
          <mxGeometry relative="1" as="geometry">
            <mxPoint y="-10" as="offset" />
          </mxGeometry>
        </mxCell>
        <mxCell id="eHgLXqpAeeJmSoNgKmg_-39" value="sd Utilisation du blog" style="text;html=1;align=center;verticalAlign=middle;resizable=0;points=[];autosize=1;strokeColor=none;fillColor=none;" parent="1" vertex="1">
          <mxGeometry x="-785" y="10" width="130" height="30" as="geometry" />
        </mxCell>
        <mxCell id="eHgLXqpAeeJmSoNgKmg_-40" value="" style="endArrow=none;dashed=1;html=1;dashPattern=1 3;strokeWidth=2;rounded=0;" parent="1" source="eHgLXqpAeeJmSoNgKmg_-8" edge="1">
          <mxGeometry width="50" height="50" relative="1" as="geometry">
            <mxPoint x="-481" y="165" as="sourcePoint" />
            <mxPoint x="-431" y="115" as="targetPoint" />
          </mxGeometry>
        </mxCell>
        <mxCell id="eHgLXqpAeeJmSoNgKmg_-42" value="" style="endArrow=none;dashed=1;html=1;dashPattern=1 3;strokeWidth=2;rounded=0;" parent="1" edge="1">
          <mxGeometry width="50" height="50" relative="1" as="geometry">
            <mxPoint x="-795.5" y="180" as="sourcePoint" />
            <mxPoint x="-795.5" y="150" as="targetPoint" />
          </mxGeometry>
        </mxCell>
        <mxCell id="rLgrCAnV_b43Tge-Wyza-8" value="" style="html=1;points=[];perimeter=orthogonalPerimeter;outlineConnect=0;targetShapes=umlLifeline;portConstraint=eastwest;newEdgeStyle={&quot;edgeStyle&quot;:&quot;elbowEdgeStyle&quot;,&quot;elbow&quot;:&quot;vertical&quot;,&quot;curved&quot;:0,&quot;rounded&quot;:0};" parent="1" vertex="1">
          <mxGeometry x="-431" y="240" width="10" height="20" as="geometry" />
        </mxCell>
        <mxCell id="H61nWzEEqI4VSqPFWY5y-5" value="" style="endArrow=classic;html=1;rounded=0;" parent="1" edge="1">
          <mxGeometry relative="1" as="geometry">
            <mxPoint x="-790" y="220" as="sourcePoint" />
            <mxPoint x="-441" y="220" as="targetPoint" />
            <Array as="points">
              <mxPoint x="-720" y="220" />
              <mxPoint x="-670" y="220" />
            </Array>
          </mxGeometry>
        </mxCell>
        <mxCell id="H61nWzEEqI4VSqPFWY5y-6" value="1.1 : prise de contact()" style="edgeLabel;resizable=0;html=1;align=center;verticalAlign=middle;" parent="H61nWzEEqI4VSqPFWY5y-5" connectable="0" vertex="1">
          <mxGeometry relative="1" as="geometry">
            <mxPoint y="-10" as="offset" />
          </mxGeometry>
        </mxCell>
        <mxCell id="H61nWzEEqI4VSqPFWY5y-9" value="1.3 : envoi du mail()" style="html=1;align=left;spacingLeft=2;endArrow=block;rounded=0;edgeStyle=orthogonalEdgeStyle;curved=0;rounded=0;" parent="1" edge="1">
          <mxGeometry relative="1" as="geometry">
            <mxPoint x="-431" y="260" as="sourcePoint" />
            <Array as="points">
              <mxPoint x="-397.5" y="290" />
            </Array>
            <mxPoint x="-422" y="290" as="targetPoint" />
          </mxGeometry>
        </mxCell>
        <mxCell id="S5dVF0mpriot_T31x6Bu-2" value="" style="endArrow=classic;html=1;rounded=0;" edge="1" parent="1">
          <mxGeometry relative="1" as="geometry">
            <mxPoint x="-429" y="400" as="sourcePoint" />
            <mxPoint x="-80" y="400" as="targetPoint" />
            <Array as="points">
              <mxPoint x="-359" y="400" />
              <mxPoint x="-309" y="400" />
            </Array>
          </mxGeometry>
        </mxCell>
        <mxCell id="S5dVF0mpriot_T31x6Bu-3" value="1.6 : demande de validation du commentaire()" style="edgeLabel;resizable=0;html=1;align=center;verticalAlign=middle;" connectable="0" vertex="1" parent="S5dVF0mpriot_T31x6Bu-2">
          <mxGeometry relative="1" as="geometry">
            <mxPoint y="-10" as="offset" />
          </mxGeometry>
        </mxCell>
        <mxCell id="S5dVF0mpriot_T31x6Bu-4" value="" style="html=1;points=[];perimeter=orthogonalPerimeter;outlineConnect=0;targetShapes=umlLifeline;portConstraint=eastwest;newEdgeStyle={&quot;edgeStyle&quot;:&quot;elbowEdgeStyle&quot;,&quot;elbow&quot;:&quot;vertical&quot;,&quot;curved&quot;:0,&quot;rounded&quot;:0};" vertex="1" parent="1">
          <mxGeometry x="-80" y="180" width="10" height="260" as="geometry" />
        </mxCell>
        <mxCell id="S5dVF0mpriot_T31x6Bu-5" value=": Administrateur" style="shape=umlActor;verticalLabelPosition=bottom;verticalAlign=top;html=1;outlineConnect=0;" vertex="1" parent="1">
          <mxGeometry x="-90" y="70" width="30" height="60" as="geometry" />
        </mxCell>
        <mxCell id="S5dVF0mpriot_T31x6Bu-6" value="" style="endArrow=classic;html=1;rounded=0;" edge="1" parent="1">
          <mxGeometry relative="1" as="geometry">
            <mxPoint x="-311" y="439" as="sourcePoint" />
            <mxPoint x="-431" y="439" as="targetPoint" />
            <Array as="points">
              <mxPoint x="-233.5" y="439" />
              <mxPoint x="-81" y="439" />
            </Array>
          </mxGeometry>
        </mxCell>
        <mxCell id="S5dVF0mpriot_T31x6Bu-7" value="&lt;div&gt;1.8 : validation du commentaire()&lt;/div&gt;" style="edgeLabel;resizable=0;html=1;align=center;verticalAlign=middle;" connectable="0" vertex="1" parent="S5dVF0mpriot_T31x6Bu-6">
          <mxGeometry relative="1" as="geometry">
            <mxPoint x="-119" y="-10" as="offset" />
          </mxGeometry>
        </mxCell>
        <mxCell id="S5dVF0mpriot_T31x6Bu-9" value="" style="endArrow=classic;html=1;rounded=0;" edge="1" parent="1">
          <mxGeometry relative="1" as="geometry">
            <mxPoint x="-671" y="439" as="sourcePoint" />
            <mxPoint x="-791" y="439" as="targetPoint" />
            <Array as="points">
              <mxPoint x="-593.5" y="439" />
              <mxPoint x="-441" y="439" />
            </Array>
          </mxGeometry>
        </mxCell>
        <mxCell id="S5dVF0mpriot_T31x6Bu-10" value="&lt;div&gt;1.7 : notification de commentaire validée()&lt;/div&gt;" style="edgeLabel;resizable=0;html=1;align=center;verticalAlign=middle;" connectable="0" vertex="1" parent="S5dVF0mpriot_T31x6Bu-9">
          <mxGeometry relative="1" as="geometry">
            <mxPoint x="-119" y="-10" as="offset" />
          </mxGeometry>
        </mxCell>
        <mxCell id="S5dVF0mpriot_T31x6Bu-11" value="1.2 : vérifications des informations()" style="html=1;align=left;spacingLeft=2;endArrow=block;rounded=0;edgeStyle=orthogonalEdgeStyle;curved=0;rounded=0;" edge="1" parent="1">
          <mxGeometry relative="1" as="geometry">
            <mxPoint x="-431" y="220" as="sourcePoint" />
            <Array as="points">
              <mxPoint x="-397.5" y="250" />
            </Array>
            <mxPoint x="-422" y="250" as="targetPoint" />
          </mxGeometry>
        </mxCell>
        <mxCell id="S5dVF0mpriot_T31x6Bu-14" value="" style="endArrow=classic;html=1;rounded=0;" edge="1" parent="1">
          <mxGeometry relative="1" as="geometry">
            <mxPoint x="-671" y="289.5" as="sourcePoint" />
            <mxPoint x="-791" y="289.5" as="targetPoint" />
            <Array as="points">
              <mxPoint x="-593.5" y="289.5" />
              <mxPoint x="-441" y="289.5" />
            </Array>
          </mxGeometry>
        </mxCell>
        <mxCell id="S5dVF0mpriot_T31x6Bu-15" value="&lt;div&gt;1.4 : notification d&#39;envoi du mail()&lt;/div&gt;" style="edgeLabel;resizable=0;html=1;align=center;verticalAlign=middle;" connectable="0" vertex="1" parent="S5dVF0mpriot_T31x6Bu-14">
          <mxGeometry relative="1" as="geometry">
            <mxPoint x="-119" y="-10" as="offset" />
          </mxGeometry>
        </mxCell>
        <mxCell id="S5dVF0mpriot_T31x6Bu-16" value="" style="html=1;points=[];perimeter=orthogonalPerimeter;outlineConnect=0;targetShapes=umlLifeline;portConstraint=eastwest;newEdgeStyle={&quot;edgeStyle&quot;:&quot;elbowEdgeStyle&quot;,&quot;elbow&quot;:&quot;vertical&quot;,&quot;curved&quot;:0,&quot;rounded&quot;:0};" vertex="1" parent="1">
          <mxGeometry x="-431" y="280" width="10" height="20" as="geometry" />
        </mxCell>
        <mxCell id="S5dVF0mpriot_T31x6Bu-19" value="" style="endArrow=none;dashed=1;html=1;dashPattern=1 3;strokeWidth=2;rounded=0;" edge="1" parent="1">
          <mxGeometry width="50" height="50" relative="1" as="geometry">
            <mxPoint x="-75.5" y="180" as="sourcePoint" />
            <mxPoint x="-75.5" y="150" as="targetPoint" />
          </mxGeometry>
        </mxCell>
        <mxCell id="S5dVF0mpriot_T31x6Bu-22" value="ref" style="shape=umlFrame;whiteSpace=wrap;html=1;pointerEvents=0;" vertex="1" parent="1">
          <mxGeometry x="-789" y="310" width="709" height="50" as="geometry" />
        </mxCell>
        <mxCell id="S5dVF0mpriot_T31x6Bu-23" value="Voir Connexion" style="text;html=1;align=center;verticalAlign=middle;resizable=0;points=[];autosize=1;strokeColor=none;fillColor=none;" vertex="1" parent="1">
          <mxGeometry x="-560" y="320" width="100" height="30" as="geometry" />
        </mxCell>
      </root>
    </mxGraphModel>
  </diagram>
</mxfile>
